<svg width="1600" height="36" viewBox="0 0 1600 36" fill="none" xmlns="http://www.w3.org/2000/svg">
<rect x="-7" y="1" width="1607" height="32" fill="black"/>
<path d="M707.419 25V12.2H710.107V22.568H713.851V25H707.419ZM715.45 12.2H722.906V25H715.45V12.2ZM718.042 22.632H720.314V14.584H718.042V22.632ZM724.512 21.016H727.2V22.568H728.688V14.888H725.776V12.2H731.376V23.24L729.488 25H724.512V21.016ZM737.941 20.792H735.669V25H732.981V14.232L735.045 12.2H738.581L740.645 14.232V25H737.941V20.792ZM735.669 18.36H737.941V14.632H735.669V18.36ZM752.613 20.792H750.341V25H747.653V14.232L749.717 12.2H753.253L755.317 14.232V25H752.613V20.792ZM750.341 18.36H752.613V14.632H750.341V18.36ZM764.375 25H756.919V12.2H759.575V22.568H761.735V12.2H764.375V25ZM773.485 14.632H771.117V25H768.445V14.632H765.981V12.2H773.485V14.632ZM775.09 12.2H782.546V25H775.09V12.2ZM777.682 22.632H779.954V14.584H777.682V22.632ZM789.017 25L787.465 20.376H786.777V25H784.153V14.008L786.057 12.2H791.417V20.344H789.993L791.657 25H789.017ZM788.793 14.632H786.777V17.976H788.793V14.632ZM797.726 22.568V25H793.262V22.568H794.158V14.632H793.262V12.2H797.726V14.632H796.83V22.568H797.726ZM806.173 12.2V14.328L802.381 22.568H805.901V25H800.109L799.325 22.984L803.069 14.632H799.453V12.2H806.173ZM812.738 20.792H810.466V25H807.778V14.232L809.842 12.2H813.378L815.442 14.232V25H812.738V20.792ZM810.466 18.36H812.738V14.632H810.466V18.36ZM817.044 12.2H822.548L824.612 14.232V23.224L822.82 25H817.044V12.2ZM821.924 14.632H819.732V22.568H821.924V14.632ZM831.175 20.792H828.903V25H826.215V14.232L828.279 12.2H831.815L833.879 14.232V25H831.175V20.792ZM828.903 18.36H831.175V14.632H828.903V18.36ZM848.647 19.672V25H842.647L840.887 23.224V12.2H846.375L848.183 13.896V17.416L846.919 18.424L848.647 19.672ZM845.527 14.632H843.559V17.272H845.527V14.632ZM845.959 19.672H843.559V22.568H845.959V19.672ZM855.207 20.792H852.935V25H850.247V14.232L852.311 12.2H855.847L857.911 14.232V25H855.207V20.792ZM852.935 18.36H855.207V14.632H852.935V18.36ZM864.376 25L862.824 20.376H862.136V25H859.512V14.008L861.416 12.2H866.776V20.344H865.352L867.016 25H864.376ZM864.152 14.632H862.136V17.976H864.152V14.632ZM876.078 25H868.622V12.2H871.278V22.568H873.438V12.2H876.078V25ZM885.748 17.912V25H883.06V20.328H880.356V25H877.684V12.2H880.356V17.912H880.548L883.06 12.2H885.732L883.284 17.912H885.748Z" fill="white"/>
</svg>
