<svg width="21" height="21" viewBox="0 0 21 21" fill="none" xmlns="http://www.w3.org/2000/svg">
<path d="M17.873 20.4718C17.6305 20.4178 17.4111 20.289 17.2458 20.1034L15.7437 18.4168C14.7862 17.3417 13.1628 17.2111 11.7967 17.6655C10.942 17.9498 10.0229 18.0919 9.03926 18.0919C6.52085 18.0919 4.38465 17.2143 2.63066 15.459C0.876885 13.7039 0 11.5662 0 9.04597C0 6.52569 0.876885 4.38801 2.63066 2.63294C4.38465 0.877647 6.52085 0 9.03926 0C11.5577 0 13.6938 0.877647 15.4475 2.63294C17.2015 4.38801 18.0785 6.52569 18.0785 9.04597C18.0785 10.0429 17.9365 10.9627 17.6524 11.8055C17.1854 13.1906 17.1984 14.8133 18.1635 15.9111L19.7572 17.7238C19.9163 17.9048 20.0257 18.1241 20.0747 18.3601C20.094 18.4531 20.1038 18.5479 20.1038 18.6429V18.8694C20.1038 18.9562 20.0949 19.0428 20.0772 19.1279C20.0268 19.3706 19.9066 19.5934 19.7313 19.7687L19.5 20L19.3982 20.0932C19.1871 20.2865 18.9266 20.4176 18.6457 20.4719C18.5488 20.4906 18.4503 20.5 18.3516 20.5H18.1301C18.0436 20.5 17.9574 20.4905 17.873 20.4718ZM9.03926 14.5796C10.5824 14.5796 11.8898 14.0434 12.9612 12.9712C14.0329 11.8987 14.5688 10.5903 14.5688 9.04597C14.5688 7.50164 14.0329 6.19323 12.9612 5.12074C11.8898 4.04848 10.5824 3.51235 9.03926 3.51235C7.49607 3.51235 6.18863 4.04848 5.11695 5.12074C4.04548 6.19323 3.50975 7.50164 3.50975 9.04597C3.50975 10.5903 4.04548 11.8987 5.11695 12.9712C6.18863 14.0434 7.49607 14.5796 9.03926 14.5796Z" fill="#CACACA"/>
</svg>
